<?xml version="1.0" encoding="utf-8"?><svg viewBox="0 0 15 21" xmlns="http://www.w3.org/2000/svg" xmlns:xlink="http://www.w3.org/1999/xlink"><style>:root>svg{display:none}:root>svg:target{display:block}</style><svg fill="none" viewBox="0 0 15 21" id="sprite--phone" xmlns="http://www.w3.org/2000/svg"><path d="M2.143 2.1v16.8h10.714V2.1H2.143zM1.07 0h12.86c.284 0 .556.11.757.308.201.196.314.464.314.742v18.9c0 .279-.113.546-.314.742a1.08 1.08 0 01-.757.308H1.07c-.284 0-.556-.11-.757-.308A1.04 1.04 0 010 19.95V1.05C0 .772.113.504.314.308.514.11.787 0 1.07 0zM7.5 15.75c.284 0 .557.11.758.308a1.04 1.04 0 010 1.485 1.087 1.087 0 01-1.516-.001 1.04 1.04 0 01-.313-.742c0-.279.112-.546.313-.742.201-.197.474-.308.758-.308z" fill="#838383"/></svg></svg>